<svg width="51" height="51" viewBox="0 0 51 51" fill="none" xmlns="http://www.w3.org/2000/svg">
<path d="M27.452 42.772C27.452 42.4368 27.1796 42.1633 26.8433 42.1633H24.9178C24.5826 42.1633 24.3091 42.4357 24.3091 42.772V45.7451C24.3091 46.0804 24.5815 46.3538 24.9178 46.3538H26.8433C27.1786 46.3538 27.452 46.0814 27.452 45.7451V42.772ZM45.2615 42.772C45.2615 42.4368 44.9891 42.1633 44.6529 42.1633H42.7273C42.3921 42.1633 42.1187 42.4357 42.1187 42.772V45.7451C42.1187 46.0804 42.3911 46.3538 42.7273 46.3538H44.6529C44.9881 46.3538 45.2615 46.0814 45.2615 45.7451V42.772Z" fill="#191E3B"/>
<path d="M45.2615 36.8058V43.211H24.3091V36.8058C24.3091 35.6503 24.5564 34.5084 25.0341 33.4566L27.1272 28.8429C27.3844 28.2766 27.7889 27.7898 28.2984 27.4332C28.8079 27.0767 29.4038 26.8634 30.0239 26.8157L31.2339 26.7215C33.598 26.5396 35.9726 26.5396 38.3368 26.7215L39.5468 26.8157C40.1668 26.8634 40.7627 27.0767 41.2723 27.4332C41.7818 27.7898 42.1863 28.2766 42.4434 28.8429L44.5366 33.4566C45.0142 34.5086 45.2613 35.6505 45.2615 36.8058Z" fill="#94B6CC"/>
<path d="M26.4044 31.6871H23.3485C23.0651 31.6891 22.7927 31.7969 22.5849 31.9896C22.377 32.1822 22.2488 32.4457 22.2254 32.7281C22.202 33.0105 22.2852 33.2914 22.4585 33.5156C22.6318 33.7398 22.8828 33.891 23.162 33.9395L25.3567 34.3062L26.4044 31.6871ZM43.1663 31.6871H46.2222C46.5055 31.6891 46.7779 31.7969 46.9858 31.9896C47.1936 32.1822 47.3218 32.4457 47.3452 32.7281C47.3686 33.0105 47.2854 33.2914 47.1121 33.5156C46.9388 33.7398 46.6878 33.891 46.4086 33.9395L44.2139 34.3062L43.1663 31.6871Z" fill="#94B6CC"/>
<path d="M45.2615 40.068H41.6598C41.5824 40.068 41.5058 40.0528 41.4343 40.0231C41.3628 39.9935 41.2978 39.95 41.2431 39.8952C41.1884 39.8404 41.1451 39.7754 41.1156 39.7038C41.086 39.6323 41.0709 39.5556 41.071 39.4782V38.6202C41.071 38.3604 41.2418 38.131 41.4901 38.0566L45.2615 36.9252V40.068ZM24.3091 40.068H27.9109C28.2356 40.068 28.4996 39.804 28.4996 39.4782V38.6202C28.4996 38.4937 28.4588 38.3706 28.3833 38.2691C28.3079 38.1676 28.2017 38.0931 28.0806 38.0566L24.3091 36.9252V40.068Z" fill="white"/>
<path d="M44.8182 34.1616C38.1586 35.043 31.4118 35.043 24.7521 34.1616C24.835 33.9223 24.929 33.6871 25.0339 33.4566L26.7877 29.5919H42.7838L44.5375 33.4566C44.6422 33.6871 44.7365 33.9228 44.8182 34.1616Z" fill="#191E3B"/>
<path fill-rule="evenodd" clip-rule="evenodd" d="M13.3091 21.7348V29.0681H10.1663V21.7348H13.3091ZM13.4516 20.1633C14.2415 20.1633 14.8806 20.8024 14.8806 21.5923V29.2106C14.8806 30.0005 14.2415 30.6395 13.4516 30.6395H10.0238C9.2339 30.6395 8.59485 30.0005 8.59485 29.2106V21.5923C8.59485 20.8024 9.2339 20.1633 10.0238 20.1633H13.4516Z" fill="#191E3B"/>
<path d="M14.8806 21.5923C14.8806 20.8024 14.2415 20.1633 13.4516 20.1633H10.0238C9.2339 20.1633 8.59485 20.8024 8.59485 21.5923V22.2586H14.8806V21.5923Z" fill="#191E3B"/>
<path d="M4.40436 28.6752C4.40436 27.4463 5.40169 26.449 6.63055 26.449H16.8448C18.0737 26.449 19.071 27.4463 19.071 28.6752V40.9847C19.071 41.5751 18.8365 42.1414 18.419 42.5588C18.0015 42.9763 17.4353 43.2109 16.8448 43.2109H6.63055C6.04013 43.2109 5.47389 42.9763 5.05639 42.5588C4.6389 42.1414 4.40436 41.5751 4.40436 40.9847V28.6752Z" fill="#337197"/>
<path d="M9.44332 31.2576C9.4902 31.1763 9.55265 31.105 9.62711 31.0478C9.70156 30.9906 9.78656 30.9486 9.87723 30.9243C9.96791 30.9 10.0625 30.8938 10.1556 30.906C10.2487 30.9183 10.3384 30.9487 10.4197 30.9957L14.6259 33.4262C14.7896 33.5208 14.9091 33.6766 14.9582 33.8592C15.0073 34.0418 14.982 34.2365 14.8878 34.4005L14.0308 35.886C13.9362 36.05 13.7803 36.1697 13.5974 36.2188C13.4145 36.2679 13.2196 36.2424 13.0555 36.1479L8.84827 33.7185C8.68428 33.6238 8.56458 33.4679 8.51547 33.285C8.46637 33.1021 8.49186 32.9072 8.58637 32.7431L9.44332 31.2576Z" fill="#FDDB32"/>
<path d="M14.8806 43.2109H16.452C16.7628 43.2109 17.0666 43.3031 17.3251 43.4758C17.5835 43.6484 17.7849 43.8939 17.9038 44.181C18.0228 44.4681 18.0539 44.7841 17.9932 45.0889C17.9326 45.3938 17.7829 45.6738 17.5632 45.8935C17.3434 46.1133 17.0634 46.263 16.7586 46.3236C16.4538 46.3842 16.1378 46.3531 15.8507 46.2342C15.5635 46.1152 15.3181 45.9138 15.1454 45.6554C14.9727 45.397 14.8806 45.0932 14.8806 44.7824V43.2109ZM6.49963 43.2109H8.07106C8.38186 43.2109 8.68568 43.3031 8.9441 43.4758C9.20252 43.6484 9.40394 43.8939 9.52287 44.181C9.64181 44.4681 9.67293 44.7841 9.6123 45.0889C9.55166 45.3938 9.402 45.6738 9.18223 45.8935C8.96246 46.1133 8.68246 46.263 8.37763 46.3236C8.07281 46.3842 7.75684 46.3531 7.4697 46.2342C7.18256 46.1152 6.93714 45.9138 6.76447 45.6554C6.5918 45.397 6.49963 45.0932 6.49963 44.7824V43.2109Z" fill="#191E3B"/>
<path d="M25.077 4.43327L32.6901 12.8299H24.6444L20.1187 3.40137H22.7482C23.1869 3.4013 23.6207 3.49309 24.0218 3.67081C24.4229 3.84853 24.7824 4.10826 25.077 4.43327Z" fill="#337197"/>
<path d="M30.5948 19.1157C30.5948 18.8379 30.4845 18.5714 30.288 18.375C30.0915 18.1785 29.8251 18.0681 29.5472 18.0681H25.3568V21.211H29.5472C29.8251 21.211 30.0915 21.1006 30.288 20.9041C30.4845 20.7077 30.5948 20.4412 30.5948 20.1634V19.1157Z" fill="#191E3B"/>
<path d="M12.8325 10.7347C11.7901 10.7347 10.7865 10.3471 10.0144 9.64515L6.3519 6.31373C5.7731 5.78764 5.01892 5.49627 4.23676 5.49658H2.83295L6.49961 14.9252L15.7972 17.715C16.5789 17.9493 17.3907 18.0683 18.2068 18.068H42.6425C45.2458 18.068 47.3568 15.9654 47.3568 14.6632C47.3568 13.8293 45.9509 12.7796 44.2904 11.5644C43.5607 11.0274 42.6789 10.7368 41.7729 10.7347H12.8325Z" fill="#94B6CC"/>
<path d="M47.3306 14.9252H6.49963L15.7973 17.715C16.579 17.9493 17.3907 18.0683 18.2068 18.068H42.6425C45.0782 18.068 47.0813 16.2284 47.3306 14.9252Z" fill="#337197"/>
<path d="M24.1918 23.369L32.1663 14.9252H23.7853L19.071 24.3537H21.907C22.3346 24.3536 22.7577 24.2662 23.1504 24.0969C23.5431 23.9276 23.8971 23.6799 24.1908 23.369H24.1918Z" fill="#94B6CC"/>
</svg>
