<svg width="51" height="51" viewBox="0 0 51 51" fill="none" xmlns="http://www.w3.org/2000/svg">
<path d="M8.88092 12.8297C8.88092 11.9962 9.21204 11.1968 9.80144 10.6074C10.3908 10.018 11.1902 9.68689 12.0238 9.68689H39.2619C40.0954 9.68689 40.8948 10.018 41.4842 10.6074C42.0736 11.1968 42.4047 11.9962 42.4047 12.8297V23.3059C42.4047 24.1395 42.0736 24.9389 41.4842 25.5283C40.8948 26.1177 40.0954 26.4488 39.2619 26.4488H12.0238C11.1902 26.4488 10.3908 26.1177 9.80144 25.5283C9.21204 24.9389 8.88092 24.1395 8.88092 23.3059V12.8297Z" fill="#337197"/>
<path d="M13.0714 19.1154C13.0714 18.5597 13.2922 18.0268 13.6851 17.6338C14.078 17.2409 14.611 17.0201 15.1666 17.0201H22.5C23.0557 17.0201 23.5886 17.2409 23.9815 17.6338C24.3745 18.0268 24.5952 18.5597 24.5952 19.1154V22.2582C24.5952 22.8139 24.3745 23.3469 23.9815 23.7398C23.5886 24.1327 23.0557 24.3535 22.5 24.3535H15.1666C14.611 24.3535 14.078 24.1327 13.6851 23.7398C13.2922 23.3469 13.0714 22.8139 13.0714 22.2582V19.1154ZM26.6905 19.1154C26.6905 18.5597 26.9112 18.0268 27.3041 17.6338C27.6971 17.2409 28.23 17.0201 28.7857 17.0201H36.119C36.6747 17.0201 37.2077 17.2409 37.6006 17.6338C37.9935 18.0268 38.2143 18.5597 38.2143 19.1154V22.2582C38.2143 22.8139 37.9935 23.3469 37.6006 23.7398C37.2077 24.1327 36.6747 24.3535 36.119 24.3535H28.7857C28.23 24.3535 27.6971 24.1327 27.3041 23.7398C26.9112 23.3469 26.6905 22.8139 26.6905 22.2582V19.1154Z" fill="white"/>
<path d="M7.31056 23.3374L5.71503 25.4986C5.04965 26.3995 4.69056 27.49 4.69046 28.61V34.8297H46.5952V28.61C46.5951 27.49 46.236 26.3995 45.5707 25.4986L43.9762 23.3374C43.4891 22.6778 42.8541 22.1417 42.122 21.7723C41.39 21.403 40.5815 21.2106 39.7616 21.2107H11.5241C10.7043 21.2107 9.89604 21.4032 9.16422 21.7726C8.4324 22.1419 7.79749 22.6779 7.31056 23.3374Z" fill="#94B6CC"/>
<path d="M4.69046 29.5917H46.5952V37.9726H4.69046V29.5917Z" fill="#337197"/>
<path d="M46.5952 35.8773H4.69046V42.163C4.69046 42.4409 4.80083 42.7073 4.9973 42.9038C5.19377 43.1003 5.46023 43.2107 5.73808 43.2107H7.01617C7.24986 43.2106 7.47681 43.1324 7.66094 42.9885C7.84508 42.8446 7.97581 42.6433 8.03237 42.4166L8.48389 40.6073C8.59719 40.154 8.85875 39.7516 9.227 39.4641C9.59524 39.1765 10.049 39.0202 10.5163 39.0202H40.7684C41.2356 39.0202 41.6894 39.1765 42.0576 39.4641C42.4259 39.7516 42.6874 40.154 42.8007 40.6073L43.2544 42.4166C43.3109 42.6433 43.4417 42.8446 43.6258 42.9885C43.8099 43.1324 44.0369 43.2106 44.2706 43.2107H45.5476C45.8255 43.2107 46.0919 43.1003 46.2884 42.9038C46.4849 42.7073 46.5952 42.4409 46.5952 42.163V35.8773Z" fill="#011835"/>
</svg>
